<svg width="301" height="90" viewBox="0 0 301 90" fill="none" xmlns="http://www.w3.org/2000/svg">
<path d="M82.8125 90H66.4375V53.375H8.6875C7.52083 53.375 6.4375 53.1667 5.4375 52.75C4.4375 52.2917 3.5625 51.7083 2.8125 51C2.10417 50.25 1.54167 49.375 1.125 48.375C0.708333 47.375 0.5 46.3125 0.5 45.1875V0.375H16.75V37H66.4375V0.375H82.8125V90ZM204.188 52.5C204.188 56.1667 203.708 59.6458 202.75 62.9375C201.833 66.1875 200.521 69.2083 198.812 72C197.104 74.7917 195.083 77.2917 192.75 79.5C190.417 81.7083 187.854 83.6042 185.062 85.1875C182.312 86.7292 179.375 87.9167 176.25 88.75C173.125 89.5833 169.938 90 166.688 90H137.375C134.083 90 130.875 89.5833 127.75 88.75C124.625 87.9167 121.667 86.7292 118.875 85.1875C116.125 83.6042 113.583 81.7083 111.25 79.5C108.917 77.2917 106.896 74.7917 105.188 72C103.521 69.2083 102.208 66.1875 101.25 62.9375C100.333 59.6458 99.875 56.1667 99.875 52.5V37.875C99.875 32.375 100.896 27.3333 102.938 22.75C105.021 18.1667 107.792 14.2292 111.25 10.9375C114.708 7.60417 118.688 5.02083 123.188 3.1875C127.729 1.3125 132.458 0.375 137.375 0.375H166.688C169.938 0.375 173.125 0.791667 176.25 1.625C179.375 2.45833 182.312 3.66667 185.062 5.25C187.854 6.79167 190.417 8.66667 192.75 10.875C195.083 13.0833 197.104 15.5833 198.812 18.375C200.521 21.1667 201.833 24.2083 202.75 27.5C203.708 30.75 204.188 34.2083 204.188 37.875V52.5ZM187.812 37.875C187.812 34.6667 187.229 31.75 186.062 29.125C184.896 26.5 183.333 24.25 181.375 22.375C179.458 20.5 177.229 19.0625 174.688 18.0625C172.146 17.0625 169.479 16.5833 166.688 16.625H137.375C134.667 16.5833 132.021 17.0625 129.438 18.0625C126.896 19.0208 124.625 20.4375 122.625 22.3125C120.667 24.1458 119.083 26.3958 117.875 29.0625C116.708 31.6875 116.125 34.625 116.125 37.875V52.5C116.125 55.75 116.708 58.6875 117.875 61.3125C119.042 63.9375 120.604 66.1875 122.562 68.0625C124.521 69.8958 126.771 71.3125 129.312 72.3125C131.896 73.3125 134.583 73.7917 137.375 73.75H166.688C169.896 73.75 172.792 73.2292 175.375 72.1875C178 71.1042 180.229 69.625 182.062 67.75C183.896 65.875 185.312 63.6458 186.312 61.0625C187.312 58.4375 187.812 55.5833 187.812 52.5V37.875ZM180.75 26C181.375 26.9167 181.792 27.9167 182 29C182.208 30.0417 182.208 31.0833 182 32.125C181.792 33.125 181.375 34.0833 180.75 35C180.167 35.875 179.396 36.625 178.438 37.25L134.562 66.5625C133.854 67.1042 133.125 67.4792 132.375 67.6875C131.625 67.8958 130.854 68 130.062 68C128.729 68 127.458 67.6875 126.25 67.0625C125.042 66.4375 124.062 65.5417 123.312 64.375C122.688 63.4583 122.271 62.4792 122.062 61.4375C121.854 60.3542 121.833 59.3125 122 58.3125C122.208 57.2708 122.604 56.3125 123.188 55.4375C123.771 54.5208 124.542 53.75 125.5 53.125L169.5 23.8125C170.417 23.1875 171.396 22.7708 172.438 22.5625C173.521 22.3542 174.562 22.3542 175.562 22.5625C176.604 22.7708 177.562 23.1667 178.438 23.75C179.354 24.3333 180.125 25.0833 180.75 26ZM300.312 90H283.938V53.375H226.188C225.021 53.375 223.938 53.1667 222.938 52.75C221.938 52.2917 221.062 51.7083 220.312 51C219.604 50.25 219.042 49.375 218.625 48.375C218.208 47.375 218 46.3125 218 45.1875V0.375H234.25V37H283.938V0.375H300.312V90Z" fill="white"/>
</svg>
