<svg width="15" height="15" viewBox="0 0 15 15" fill="none" xmlns="http://www.w3.org/2000/svg">
<path fill-rule="evenodd" clip-rule="evenodd" d="M7.5 14.0625C3.87563 14.0625 0.9375 11.1234 0.9375 7.5C0.9375 3.87656 3.87563 0.9375 7.5 0.9375C11.1244 0.9375 14.0625 3.87656 14.0625 7.5C14.0625 11.1234 11.1244 14.0625 7.5 14.0625ZM7.5 0C3.35766 0 0 3.35625 0 7.5C0 11.6438 3.35766 15 7.5 15C11.6423 15 15 11.6438 15 7.5C15 3.35625 11.6423 0 7.5 0ZM10.1798 4.81876C9.99515 4.63595 9.69656 4.63595 9.51187 4.81876L7.4972 6.83435L5.51156 4.84686C5.32828 4.66405 5.03109 4.66405 4.84875 4.84686C4.66547 5.02967 4.66547 5.32969 4.84875 5.5125L6.83438 7.49531L4.8347 9.49688C4.65048 9.67969 4.65048 9.97966 4.8347 10.1672C5.01939 10.35 5.31843 10.35 5.50312 10.1672L7.5028 8.16565L9.48844 10.1531C9.67172 10.336 9.9689 10.336 10.1517 10.1531C10.335 9.97033 10.335 9.67031 10.1517 9.4875L8.16562 7.50469L10.1798 5.48904C10.3641 5.30154 10.3641 5.00626 10.1798 4.81876Z" fill="white"/>
</svg>
