<svg width="20" height="20" viewBox="0 0 20 20" fill="none" xmlns="http://www.w3.org/2000/svg">
<path fill-rule="evenodd" clip-rule="evenodd" d="M13.3258 6.51879C13.5749 6.27978 13.9705 6.28792 14.2095 6.53697L17.1176 9.56728C17.3497 9.80911 17.3497 10.1909 17.1176 10.4328L14.2095 13.4631C13.9705 13.7121 13.5749 13.7203 13.3258 13.4813C13.0768 13.2423 13.0686 12.8466 13.3076 12.5976L15.2005 10.6252H9.39404C9.04888 10.6252 8.76904 10.3454 8.76904 10.0002C8.76904 9.65503 9.04888 9.3752 9.39404 9.3752H15.2008L13.3076 7.40249C13.0686 7.15344 13.0768 6.7578 13.3258 6.51879Z" fill="white"/>
<path fill-rule="evenodd" clip-rule="evenodd" d="M2.7085 3.33325C2.7085 2.98808 2.98832 2.70825 3.3335 2.70825H11.2122C11.5575 2.70825 11.8372 2.98808 11.8372 3.33325V5.83325C11.8372 6.17843 11.5575 6.45825 11.2122 6.45825C10.8671 6.45825 10.5872 6.17843 10.5872 5.83325V3.95825H3.9585V16.0416H10.5872V14.1666C10.5872 13.8214 10.8671 13.5416 11.2122 13.5416C11.5575 13.5416 11.8372 13.8214 11.8372 14.1666V16.6666C11.8372 17.0118 11.5575 17.2916 11.2122 17.2916H3.3335C2.98832 17.2916 2.7085 17.0118 2.7085 16.6666V3.33325Z" fill="white"/>
</svg>
