<svg width="12" height="12" viewBox="0 0 12 12" fill="none" xmlns="http://www.w3.org/2000/svg">
<path d="M5.69687 2.50486C5.86433 2.33745 6.13579 2.33745 6.30325 2.50486L8.32411 4.52571C8.44674 4.64834 8.48342 4.83276 8.41706 4.99302C8.35069 5.15329 8.19433 5.25772 8.02092 5.25772H3.9792C3.80579 5.25772 3.64943 5.15329 3.58306 4.99302C3.5167 4.83276 3.55338 4.64839 3.67601 4.52571L5.69687 2.50486ZM6.98576 4.40013L6.00006 3.41443L5.01436 4.40013H6.98576Z" fill="white"/>
<path d="M3.9792 6.74236H8.02092C8.19433 6.74236 8.35069 6.84679 8.41706 7.00705C8.48342 7.16732 8.44674 7.35169 8.32411 7.47436L6.30325 9.49521C6.21954 9.57892 6.10978 9.6208 6.00006 9.6208C5.89034 9.6208 5.78062 9.57892 5.69687 9.49521L3.67601 7.47436C3.55338 7.35174 3.5167 7.16732 3.58306 7.00705C3.64943 6.84679 3.80579 6.74236 3.9792 6.74236ZM6.00006 8.5856L6.98576 7.5999H5.01436L6.00006 8.5856Z" fill="white"/>
<path d="M1.7554 1.75536C4.09588 -0.585119 7.90415 -0.585119 10.2446 1.75536C12.5851 4.09588 12.5851 7.90409 10.2446 10.2446C9.07442 11.4148 7.53717 12 6.00002 12C4.46286 12 2.92562 11.4149 1.7554 10.2446C-0.585134 7.90413 -0.585134 4.09588 1.7554 1.75536ZM2.36173 9.63823C4.36787 11.6444 7.63212 11.6444 9.63826 9.63823C11.6444 7.63215 11.6444 4.36786 9.6383 2.36178C8.63521 1.35869 7.31764 0.857174 6.00002 0.857174C4.6824 0.857174 3.36482 1.35869 2.36173 2.36178C0.355595 4.36786 0.355595 7.63215 2.36173 9.63823Z" fill="white"/>
</svg>
