<svg width="18" height="18" viewBox="0 0 18 18" fill="none" xmlns="http://www.w3.org/2000/svg">
<path fill-rule="evenodd" clip-rule="evenodd" d="M8.92092 0C13.8445 0 17.8418 3.99734 17.8418 8.92092C17.8418 13.8445 13.8445 17.8418 8.92092 17.8418C3.99734 17.8418 0 13.8445 0 8.92092C0 3.99734 3.99734 0 8.92092 0Z" fill="white"/>
<path fill-rule="evenodd" clip-rule="evenodd" d="M8.92088 1.23045C13.1653 1.23045 16.6114 4.67646 16.6114 8.92092C16.6114 13.1654 13.1653 16.6114 8.92088 16.6114C4.67642 16.6114 1.23047 13.1654 1.23047 8.92092C1.23047 4.67646 4.67642 1.23045 8.92088 1.23045Z" fill="white"/>
<path fill-rule="evenodd" clip-rule="evenodd" d="M8.84986 5.517C7.61715 4.28423 5.61549 4.28423 4.38278 5.517C3.15007 6.74971 3.15007 8.75137 4.38278 9.98408C5.61549 11.2168 7.61715 11.2168 8.84986 9.98408C10.0826 8.75137 10.0826 6.74971 8.84986 5.517Z" fill="#272727"/>
<path fill-rule="evenodd" clip-rule="evenodd" d="M13.3314 9.96962C14.5497 8.73575 14.5449 6.74489 13.317 5.517C12.0843 4.28423 10.0826 4.28423 8.84989 5.517L4.38281 9.98408L8.84989 14.4512L13.317 9.98408L13.3314 9.96962Z" fill="#272727"/>
</svg>
