<svg width="32" height="32" viewBox="0 0 32 32" fill="none" xmlns="http://www.w3.org/2000/svg">
<g clip-path="url(#clip0_63_647)">
<path fill-rule="evenodd" clip-rule="evenodd" d="M32 16C32 7.16937 24.8306 0 16 0C7.16937 0 0 7.16937 0 16C0 24.8306 7.16937 32 16 32C24.8306 32 32 24.8306 32 16ZM29.7932 15.9999C29.7932 8.38726 23.6127 2.20671 16.0001 2.20671C8.38748 2.20671 2.20703 8.38726 2.20703 15.9999C2.20703 23.6125 8.38748 29.793 16.0001 29.793C23.6127 29.793 29.7932 23.6125 29.7932 15.9999ZM15.8722 9.89503C13.6613 7.68401 10.0712 7.68401 7.86033 9.89503C5.64942 12.1059 5.64942 15.696 7.86033 17.9069C7.87553 17.9221 7.89079 17.9372 7.90611 17.9522L15.8727 25.9188L23.8846 17.9069L23.9104 17.881C26.0955 15.668 26.087 12.0973 23.8846 9.89503C21.6737 7.68401 18.0836 7.68401 15.8727 9.89503L15.8725 9.89528C15.8724 9.8952 15.8723 9.89511 15.8722 9.89503Z" fill="white"/>
</g>
<defs>
<clipPath id="clip0_63_647">
<rect width="32" height="32" fill="white"/>
</clipPath>
</defs>
</svg>
