<svg width="20" height="20" viewBox="0 0 20 20" fill="none" xmlns="http://www.w3.org/2000/svg">
<path d="M18.15 3.16925C17.646 2.71189 17.0523 2.36454 16.4066 2.14933C15.761 1.93412 15.0776 1.85576 14.4 1.91925C13.6013 1.9555 12.8223 2.1781 12.125 2.56925C11.4399 2.91189 10.7908 3.32227 10.1875 3.79425C9.60818 3.31883 8.98447 2.90024 8.325 2.54425C7.65108 2.15148 6.89178 1.92841 6.1125 1.89425C5.40801 1.83279 4.69845 1.91888 4.0291 2.14702C3.35975 2.37516 2.74531 2.74034 2.225 3.21925C1.72232 3.68544 1.32088 4.25004 1.04563 4.87795C0.770381 5.50586 0.627205 6.18366 0.625 6.86925C0.656945 7.93552 1.04409 8.96058 1.725 9.78175C3.76832 12.6514 6.16182 15.2549 8.85 17.5317L9.3375 16.9192L8.8625 17.5317C9.2289 17.8568 9.69792 18.0426 10.1875 18.0567C10.6849 18.0442 11.1623 17.8585 11.5375 17.5317C14.3938 15.0446 16.9374 12.2197 19.1125 9.11925C19.4948 8.45797 19.6974 7.7081 19.7 6.94425C19.7216 6.2414 19.5947 5.5419 19.3277 4.89142C19.0606 4.24094 18.6593 3.65411 18.15 3.16925ZM17.825 8.24425C15.7288 11.2111 13.2912 13.9213 10.5625 16.3192C10.4634 16.4051 10.3421 16.4614 10.2125 16.4817C10.0759 16.4641 9.94876 16.4027 9.85 16.3067C7.26466 14.1246 4.9596 11.6306 2.9875 8.88175C2.51018 8.3151 2.22948 7.60895 2.1875 6.86925C2.1903 6.39949 2.28935 5.93529 2.47854 5.50531C2.66774 5.07532 2.94305 4.68868 3.2875 4.36925C3.64897 4.03783 4.07627 3.78637 4.54151 3.63129C5.00676 3.47621 5.49947 3.42099 5.9875 3.46925H6.1125C6.63838 3.51049 7.14754 3.67307 7.6 3.94425C8.1709 4.24414 8.71829 4.58678 9.2375 4.96925L10.1875 5.75675L11.1375 4.96925C11.663 4.56213 12.2235 4.20239 12.8125 3.89425C13.2933 3.61334 13.8321 3.44656 14.3875 3.40675H14.5125C14.9793 3.35934 15.4508 3.4105 15.8965 3.55693C16.3423 3.70335 16.7523 3.94177 17.1 4.25675C17.4404 4.57863 17.7123 4.96602 17.8992 5.39565C18.086 5.82527 18.1841 6.28825 18.1875 6.75675C18.2113 7.27703 18.0855 7.79324 17.825 8.24425Z" fill="white"/>
</svg>
