<svg width="33" height="15" viewBox="0 0 33 15" fill="none" xmlns="http://www.w3.org/2000/svg">
<g clip-path="url(#clip0_51_1156)">
<path fill-rule="evenodd" clip-rule="evenodd" d="M2.475 11.9286H0.825002C0.369602 11.9286 0 12.2592 0 12.6667V14.1429C0 14.5503 0.369602 14.881 0.825002 14.881H2.475C2.9304 14.881 3.3 14.5503 3.3 14.1429V12.6667C3.3 12.2592 2.9304 11.9286 2.475 11.9286ZM2.475 0.127901H0.825002C0.369602 0.127901 0 0.458568 0 0.865997V2.34219C0 2.74962 0.369602 3.08028 0.825002 3.08028H2.475C2.9304 3.08028 3.3 2.74962 3.3 2.34219V0.865997C3.3 0.458568 2.9304 0.127901 2.475 0.127901ZM2.475 6.02381H0.825002C0.369602 6.02381 0 6.35448 0 6.76191V8.2381C0 8.64553 0.369602 8.97619 0.825002 8.97619H2.475C2.9304 8.97619 3.3 8.64553 3.3 8.2381V6.76191C3.3 6.35448 2.9304 6.02381 2.475 6.02381ZM32.175 11.9286H7.425C6.9696 11.9286 6.6 12.2592 6.6 12.6667V14.1429C6.6 14.5503 6.9696 14.881 7.425 14.881H32.175C32.6304 14.881 33 14.5503 33 14.1429V12.6667C33 12.2592 32.6304 11.9286 32.175 11.9286ZM32.175 0.119049H7.425C6.9696 0.119049 6.6 0.449716 6.6 0.857144V2.33333C6.6 2.74076 6.9696 3.07143 7.425 3.07143H32.175C32.6304 3.07143 33 2.74076 33 2.33333V0.857144C33 0.449716 32.6304 0.119049 32.175 0.119049ZM33 6.76191V8.2381C33 8.64553 32.6304 8.97619 32.175 8.97619H7.425C6.9696 8.97619 6.6 8.64553 6.6 8.2381V6.76191C6.6 6.35448 6.9696 6.02381 7.425 6.02381H32.175C32.6304 6.02381 33 6.35448 33 6.76191Z" fill="white"/>
</g>
<defs>
<clipPath id="clip0_51_1156">
<rect width="33" height="15" fill="white"/>
</clipPath>
</defs>
</svg>
