<svg width="175" height="19" viewBox="0 0 175 19" fill="none" xmlns="http://www.w3.org/2000/svg">
<path d="M16.2031 18H2.30469C2.08594 18 1.88281 17.9609 1.69531 17.8828C1.50781 17.8047 1.34375 17.6992 1.20312 17.5664C1.07031 17.4258 0.964844 17.2617 0.886719 17.0742C0.808594 16.8867 0.769531 16.6836 0.769531 16.4648V1.19531H3.81641V14.9531H16.2031V18ZM35.8203 11.2031C35.8203 12.2266 35.6445 13.168 35.293 14.0273C34.9414 14.8867 34.4531 15.6289 33.8281 16.2539C33.2031 16.8789 32.4609 17.3672 31.6016 17.7188C30.75 18.0625 29.8203 18.2344 28.8125 18.2344H24.6875C23.6797 18.2344 22.7461 18.0625 21.8867 17.7188C21.0273 17.3672 20.2852 16.8789 19.6602 16.2539C19.0352 15.6289 18.543 14.8867 18.1836 14.0273C17.832 13.168 17.6562 12.2266 17.6562 11.2031V7.99219C17.6562 6.97656 17.832 6.03906 18.1836 5.17969C18.543 4.3125 19.0352 3.57031 19.6602 2.95312C20.2852 2.32812 21.0273 1.83984 21.8867 1.48828C22.7461 1.13672 23.6797 0.960938 24.6875 0.960938H28.8125C29.8203 0.960938 30.75 1.13672 31.6016 1.48828C32.4609 1.83984 33.2031 2.32812 33.8281 2.95312C34.4531 3.57031 34.9414 4.3125 35.293 5.17969C35.6445 6.03906 35.8203 6.97656 35.8203 7.99219V11.2031ZM32.7734 7.99219C32.7734 7.39062 32.6758 6.84766 32.4805 6.36328C32.293 5.87109 32.0234 5.45312 31.6719 5.10938C31.3281 4.75781 30.9102 4.48828 30.418 4.30078C29.9336 4.10547 29.3984 4.00781 28.8125 4.00781H24.6875C24.0938 4.00781 23.5508 4.10547 23.0586 4.30078C22.5742 4.48828 22.1562 4.75781 21.8047 5.10938C21.4531 5.45312 21.1797 5.87109 20.9844 6.36328C20.7969 6.84766 20.7031 7.39062 20.7031 7.99219V11.2031C20.7031 11.8047 20.7969 12.3516 20.9844 12.8438C21.1797 13.3281 21.4531 13.7461 21.8047 14.0977C22.1562 14.4414 22.5742 14.7109 23.0586 14.9062C23.5508 15.0938 24.0938 15.1875 24.6875 15.1875H28.7891C29.3828 15.1875 29.9219 15.0938 30.4062 14.9062C30.8984 14.7109 31.3203 14.4414 31.6719 14.0977C32.0234 13.7461 32.293 13.3281 32.4805 12.8438C32.6758 12.3516 32.7734 11.8047 32.7734 11.2031V7.99219ZM55.2969 1.19531L47.3398 17.4023C47.2148 17.6523 47.0273 17.8516 46.7773 18C46.5352 18.1562 46.2656 18.2344 45.9688 18.2344C45.6797 18.2344 45.4102 18.1562 45.1602 18C44.918 17.8516 44.7305 17.6523 44.5977 17.4023L36.6523 1.19531H40.0625L45.9688 13.3008L51.8984 1.19531H55.2969ZM70.8359 11.1328H61.2148V8.0625H70.8359V11.1328ZM72.207 18H61.2148C60.793 18 60.332 17.9258 59.832 17.7773C59.332 17.6289 58.8672 17.3867 58.4375 17.0508C58.0156 16.707 57.6602 16.2656 57.3711 15.7266C57.0898 15.1797 56.9492 14.5117 56.9492 13.7227V2.73047C56.9492 2.51953 56.9883 2.32031 57.0664 2.13281C57.1445 1.94531 57.25 1.78125 57.3828 1.64062C57.5234 1.5 57.6875 1.39063 57.875 1.3125C58.0625 1.23437 58.2656 1.19531 58.4844 1.19531H72.207V4.24219H59.9961V13.7227C59.9961 14.1211 60.1016 14.4258 60.3125 14.6367C60.5234 14.8477 60.832 14.9531 61.2383 14.9531H72.207V18ZM94.7188 18H91.6484V7.99219L86.2461 17.4961C86.1133 17.7383 85.9258 17.9219 85.6836 18.0469C85.4492 18.1719 85.1953 18.2344 84.9219 18.2344C84.6562 18.2344 84.4062 18.1719 84.1719 18.0469C83.9453 17.9219 83.7656 17.7383 83.6328 17.4961L78.207 7.99219V18H75.1602V2.49609C75.1602 2.14453 75.2617 1.83203 75.4648 1.55859C75.6758 1.28516 75.9492 1.10156 76.2852 1.00781C76.4492 0.96875 76.6133 0.957031 76.7773 0.972656C76.9414 0.980469 77.0977 1.01563 77.2461 1.07812C77.4023 1.13281 77.543 1.21484 77.668 1.32422C77.793 1.42578 77.8984 1.55078 77.9844 1.69922L84.9219 13.7578L91.8594 1.69922C92.0391 1.40234 92.2852 1.19141 92.5977 1.06641C92.918 0.941406 93.25 0.921875 93.5938 1.00781C93.9219 1.10156 94.1914 1.28516 94.4023 1.55859C94.6133 1.83203 94.7188 2.14453 94.7188 2.49609V18ZM114.758 18H111.711V13.875H101V18H97.9531V9.59766C97.9531 8.37109 98.1641 7.24219 98.5859 6.21094C99.0078 5.17969 99.5938 4.29297 100.344 3.55078C101.094 2.80859 101.98 2.23047 103.004 1.81641C104.027 1.40234 105.145 1.19531 106.355 1.19531H113.223C113.434 1.19531 113.633 1.23437 113.82 1.3125C114.008 1.39063 114.172 1.5 114.312 1.64062C114.453 1.78125 114.562 1.94531 114.641 2.13281C114.719 2.32031 114.758 2.51953 114.758 2.73047V18ZM101 10.8281H111.711V4.24219H106.355C106.262 4.24219 106.062 4.25781 105.758 4.28906C105.461 4.3125 105.113 4.37891 104.715 4.48828C104.324 4.59766 103.91 4.76562 103.473 4.99219C103.035 5.21875 102.633 5.53125 102.266 5.92969C101.898 6.32812 101.594 6.82812 101.352 7.42969C101.117 8.02344 101 8.74609 101 9.59766V10.8281ZM135.102 16.6992C135.102 16.918 135.059 17.1211 134.973 17.3086C134.895 17.4961 134.785 17.6602 134.645 17.8008C134.512 17.9336 134.352 18.0391 134.164 18.1172C133.977 18.1953 133.777 18.2344 133.566 18.2344C133.379 18.2344 133.188 18.1992 132.992 18.1289C132.805 18.0586 132.637 17.9453 132.488 17.7891L121.355 6.16406V18H118.309V2.49609C118.309 2.18359 118.395 1.90234 118.566 1.65234C118.746 1.39453 118.973 1.20313 119.246 1.07812C119.535 0.960938 119.832 0.933594 120.137 0.996094C120.441 1.05078 120.703 1.19141 120.922 1.41797L132.055 13.0312V1.19531H135.102V16.6992ZM155.234 16.4648C155.234 16.6836 155.195 16.8867 155.117 17.0742C155.039 17.2617 154.93 17.4258 154.789 17.5664C154.656 17.6992 154.496 17.8047 154.309 17.8828C154.121 17.9609 153.918 18 153.699 18H142.707C142.426 18 142.121 17.9688 141.793 17.9062C141.473 17.8359 141.152 17.7305 140.832 17.5898C140.52 17.4492 140.219 17.2695 139.93 17.0508C139.641 16.8242 139.383 16.5547 139.156 16.2422C138.938 15.9219 138.762 15.5547 138.629 15.1406C138.496 14.7188 138.43 14.2461 138.43 13.7227V5.47266C138.43 5.19141 138.461 4.89062 138.523 4.57031C138.594 4.24219 138.699 3.92188 138.84 3.60938C138.98 3.28906 139.164 2.98438 139.391 2.69531C139.617 2.40625 139.887 2.15234 140.199 1.93359C140.52 1.70703 140.887 1.52734 141.301 1.39453C141.715 1.26172 142.184 1.19531 142.707 1.19531H155.094V4.24219H142.707C142.309 4.24219 142.004 4.34766 141.793 4.55859C141.582 4.76953 141.477 5.08203 141.477 5.49609V13.7227C141.477 14.1133 141.582 14.418 141.793 14.6367C142.012 14.8477 142.316 14.9531 142.707 14.9531H152.188V11.1328H144.078V8.0625H153.699C153.918 8.0625 154.121 8.10547 154.309 8.19141C154.496 8.26953 154.656 8.37891 154.789 8.51953C154.93 8.66016 155.039 8.82422 155.117 9.01172C155.195 9.19141 155.234 9.38672 155.234 9.59766V16.4648ZM174.898 18H171.852V13.875H161.141V18H158.094V9.59766C158.094 8.37109 158.305 7.24219 158.727 6.21094C159.148 5.17969 159.734 4.29297 160.484 3.55078C161.234 2.80859 162.121 2.23047 163.145 1.81641C164.168 1.40234 165.285 1.19531 166.496 1.19531H173.363C173.574 1.19531 173.773 1.23437 173.961 1.3125C174.148 1.39063 174.312 1.5 174.453 1.64062C174.594 1.78125 174.703 1.94531 174.781 2.13281C174.859 2.32031 174.898 2.51953 174.898 2.73047V18ZM161.141 10.8281H171.852V4.24219H166.496C166.402 4.24219 166.203 4.25781 165.898 4.28906C165.602 4.3125 165.254 4.37891 164.855 4.48828C164.465 4.59766 164.051 4.76562 163.613 4.99219C163.176 5.21875 162.773 5.53125 162.406 5.92969C162.039 6.32812 161.734 6.82812 161.492 7.42969C161.258 8.02344 161.141 8.74609 161.141 9.59766V10.8281Z" fill="white"/>
</svg>
