<svg width="16" height="16" viewBox="0 0 16 16" fill="none" xmlns="http://www.w3.org/2000/svg">
<path d="M12.0822 11.0164L15.31 14.2441L14.2441 15.31L11.0164 12.0822C9.85578 13.0108 8.38392 13.5662 6.78311 13.5662C3.03883 13.5662 0 10.5274 0 6.78311C0 3.03883 3.03883 0 6.78311 0C10.5274 0 13.5662 3.03883 13.5662 6.78311C13.5662 8.38392 13.0108 9.85578 12.0822 11.0164ZM10.5701 10.4571C11.4917 9.50735 12.0589 8.21178 12.0589 6.78311C12.0589 3.86826 9.69796 1.50736 6.78311 1.50736C3.86826 1.50736 1.50736 3.86826 1.50736 6.78311C1.50736 9.69796 3.86826 12.0589 6.78311 12.0589C8.21178 12.0589 9.50735 11.4917 10.4571 10.5701L10.5701 10.4571Z" fill="white"/>
</svg>
