<svg width="31" height="31" viewBox="0 0 31 31" fill="none" xmlns="http://www.w3.org/2000/svg">
<path d="M8.26709 16.025C8.26709 15.6136 8.43045 15.2191 8.72122 14.9282C9.012 14.6373 9.40638 14.4739 9.8176 14.4739H14.986C15.3972 14.4739 15.7916 14.6373 16.0823 14.9282C16.3731 15.2191 16.5365 15.6136 16.5365 16.025C16.5365 16.4363 16.3731 16.8308 16.0823 17.1217C15.7916 17.4126 15.3972 17.576 14.986 17.576H9.8176C9.40638 17.576 9.012 17.4126 8.72122 17.1217C8.43045 16.8308 8.26709 16.4363 8.26709 16.025ZM9.8176 9.30359C9.61398 9.30359 9.41236 9.34371 9.22424 9.42166C9.03613 9.49961 8.8652 9.61386 8.72122 9.75789C8.57724 9.90192 8.46304 10.0729 8.38512 10.2611C8.30719 10.4493 8.26709 10.651 8.26709 10.8547C8.26709 11.0584 8.30719 11.2601 8.38512 11.4482C8.46304 11.6364 8.57724 11.8074 8.72122 11.9515C8.8652 12.0955 9.03613 12.2097 9.22424 12.2877C9.41236 12.3656 9.61398 12.4058 9.8176 12.4058H19.1206C19.5319 12.4058 19.9262 12.2423 20.217 11.9515C20.5078 11.6606 20.6712 11.266 20.6712 10.8547C20.6712 10.4433 20.5078 10.0488 20.217 9.75789C19.9262 9.46701 19.5319 9.30359 19.1206 9.30359H9.8176Z" fill="white"/>
<path fill-rule="evenodd" clip-rule="evenodd" d="M2.18501 28.8141L2.18915 28.8121L2.20982 28.8038L2.28631 28.7686C2.73734 28.5693 3.19081 28.3756 3.64662 28.1875C4.7651 27.7164 5.9024 27.2914 7.05567 26.9135C7.62213 26.7357 8.10175 26.6095 8.45733 26.5495C8.55863 26.533 8.63512 26.5247 8.69094 26.5185C11.663 28.0038 15.0665 28.3826 18.2923 27.5872C21.518 26.7919 24.3556 24.8741 26.2973 22.1773C28.239 19.4804 29.158 16.1803 28.8899 12.8676C28.6219 9.5549 27.1842 6.4457 24.8342 4.09637C22.4842 1.74704 19.3752 0.310894 16.0635 0.0449147C12.7518 -0.221065 9.45363 0.700479 6.75904 2.64465C4.06445 4.58882 2.14933 7.42873 1.35636 10.6562C0.5634 13.8837 0.944343 17.2882 2.43103 20.2604C2.42493 20.3428 2.41528 20.4249 2.40208 20.5065C2.31195 20.9821 2.1904 21.4512 2.03823 21.9108C1.68265 23.0379 1.16995 24.3305 0.760613 25.3149C0.572707 25.7651 0.379743 26.2133 0.181756 26.6592L0.146612 26.7336L0.138342 26.7543V26.7584C0.00834825 27.0453 -0.0312754 27.3649 0.0247399 27.6748C0.0807552 27.9848 0.229755 28.2703 0.451926 28.4934C0.674097 28.7166 0.95891 28.8668 1.26849 28.9241C1.57807 28.9814 1.89775 28.943 2.18501 28.8141ZM14.9467 3.09923C16.5973 3.09911 18.2263 3.47422 19.7106 4.19623C21.195 4.91823 22.496 5.96825 23.5152 7.26696C24.5345 8.56567 25.2454 10.0791 25.5943 11.693C25.9431 13.3068 25.9208 14.9789 25.529 16.5828C25.1372 18.1868 24.3861 19.6807 23.3325 20.9517C22.279 22.2228 20.9505 23.2377 19.4473 23.9197C17.9442 24.6018 16.3058 24.9333 14.6558 24.8891C13.0059 24.8449 11.3875 24.4261 9.92308 23.6645C9.57934 23.4947 9.20042 23.4082 8.81705 23.4122C8.52313 23.4127 8.22982 23.439 7.9405 23.4908C7.38231 23.5859 6.74764 23.7597 6.1233 23.9561C5.56098 24.1319 4.97179 24.3408 4.39914 24.5559C4.61207 23.9872 4.81881 23.4039 4.99453 22.8435C5.193 22.2189 5.36665 21.5778 5.45968 21.0132C5.50723 20.7319 5.54238 20.4279 5.53618 20.1281C5.53822 19.7452 5.45116 19.3671 5.28189 19.0237C4.41843 17.3627 3.99732 15.5071 4.05917 13.636C4.12102 11.7648 4.66374 9.94118 5.635 8.34087C6.60626 6.74055 7.97329 5.41756 9.60429 4.49946C11.2353 3.58136 13.0752 3.09911 14.9467 3.09923Z" fill="white"/>
</svg>
