<svg width="20" height="20" viewBox="0 0 20 20" fill="none" xmlns="http://www.w3.org/2000/svg">
<g clip-path="url(#clip0_348_353)">
<path d="M18.8329 0.969941C18.1516 0.317441 17.401 -0.0131836 16.5991 -0.0131836C15.3454 -0.0131836 14.4304 0.796816 14.1804 1.04494C13.8279 1.39369 1.81414 13.4124 1.81414 13.4124C1.73539 13.4912 1.67852 13.5899 1.64914 13.6974C1.37852 14.6987 0.0210187 19.1412 0.00726868 19.1862C-0.0627313 19.4137 -0.000231326 19.6618 0.167269 19.8293C0.287894 19.9493 0.448519 20.0137 0.612894 20.0137C0.677894 20.0137 0.742894 20.0037 0.806644 19.9831C0.852269 19.9681 5.43789 18.4862 6.19289 18.2606C6.29227 18.2306 6.38352 18.1768 6.45727 18.1037C6.93414 17.6324 18.1391 6.55182 18.8829 5.78369C19.6523 4.99119 20.0348 4.16494 20.0198 3.33057C20.0041 2.50619 19.6048 1.71244 18.8316 0.970566L18.8329 0.969941ZM13.981 3.04369C14.2991 3.12057 15.0504 3.37307 15.8173 4.14682C16.5923 4.92869 16.8016 5.82244 16.841 6.02619C14.3835 8.47119 8.72664 14.0681 6.49664 16.2737C6.29102 15.7943 5.95789 15.2162 5.42227 14.6768C4.76852 14.0181 4.10289 13.6462 3.58977 13.4368C5.79664 11.2293 11.5604 5.46369 13.9804 3.04432L13.981 3.04369ZM2.74164 14.4912C3.08539 14.5824 3.79852 14.8474 4.52539 15.5799C5.08539 16.1449 5.34977 16.7674 5.46852 17.1474C4.59977 17.4268 2.69727 18.0831 1.48914 18.4731C1.84727 17.2943 2.45227 15.4593 2.74164 14.4912ZM17.9766 4.88994C17.951 4.91619 17.9085 4.95869 17.8579 5.00994C17.6604 4.50119 17.3141 3.84744 16.7135 3.24244C16.1004 2.62432 15.4785 2.25994 14.9804 2.04432C15.0229 2.00244 15.0554 1.96932 15.0685 1.95682C15.1398 1.88619 15.7891 1.26557 16.5979 1.26557C17.0635 1.26557 17.521 1.47807 17.9573 1.89682C18.4748 2.39369 18.7423 2.88369 18.751 3.35369C18.7598 3.83369 18.4985 4.35057 17.976 4.88994H17.9766Z" fill="white"/>
</g>
<defs>
<clipPath id="clip0_348_353">
<rect width="20" height="20" fill="white"/>
</clipPath>
</defs>
</svg>
