<svg width="10" height="11" viewBox="0 0 10 11" fill="none" xmlns="http://www.w3.org/2000/svg">
<path d="M4.10446 1.30245C4.47216 0.562391 5.52786 0.562389 5.89556 1.30245L6.66095 2.84292C6.80656 3.13598 7.08635 3.33926 7.41006 3.38718L9.11166 3.63907C9.92912 3.76009 10.2553 4.76412 9.66514 5.34251L8.43658 6.54647C8.20286 6.77552 8.09599 7.10443 8.15044 7.42711L8.4367 9.12326C8.57422 9.9381 7.72013 10.5586 6.98767 10.176L5.46299 9.37966C5.17293 9.22815 4.82709 9.22815 4.53703 9.37966L3.01236 10.176C2.27989 10.5586 1.4258 9.9381 1.56332 9.12326L1.84958 7.42711C1.90403 7.10443 1.79716 6.77552 1.56344 6.54647L0.334885 5.34251C-0.255324 4.76412 0.070905 3.76009 0.888366 3.63907L2.58996 3.38718C2.91367 3.33926 3.19346 3.13598 3.33907 2.84292L4.10446 1.30245Z" fill="#4C42BB"/>
</svg>
