<svg width="14" height="14" viewBox="0 0 14 14" fill="none" xmlns="http://www.w3.org/2000/svg">
<g clip-path="url(#clip0_51_911)">
<path d="M7 0C3.13425 0 0 3.13425 0 7C0 10.8657 3.13425 14 7 14C10.8657 14 14 10.8657 14 7C14 3.13425 10.8657 0 7 0ZM10.4382 4.79558L9.289 10.2089C9.20442 10.5927 8.97575 10.6861 8.65667 10.5052L6.90667 9.21608L6.06317 10.0293C5.9815 10.1342 5.85492 10.2013 5.71317 10.2013C5.712 10.2013 5.71142 10.2013 5.71025 10.2013L5.8345 8.41983L9.07783 5.49033C9.21783 5.36608 9.04633 5.2955 8.86025 5.41975L4.85333 7.94325L3.12667 7.40425C2.75333 7.28583 2.74283 7.03092 3.20542 6.84775L9.95225 4.24725C10.2661 4.13292 10.5391 4.32192 10.4376 4.79617L10.4382 4.79558Z" fill="white"/>
</g>
<defs>
<clipPath id="clip0_51_911">
<rect width="14" height="14" fill="white"/>
</clipPath>
</defs>
</svg>
