<svg width="72" height="70" viewBox="0 0 72 70" fill="none" xmlns="http://www.w3.org/2000/svg">
<path fill-rule="evenodd" clip-rule="evenodd" d="M56.8841 13.7695C60.8112 13.7695 63.9947 10.6871 63.9947 6.88477C63.9947 3.08241 60.8112 0 56.8841 0C52.957 0 49.7735 3.08241 49.7735 6.88477C49.7735 8.5274 50.3676 10.0357 51.3592 11.2191L42.826 21.0924C40.0488 19.3535 36.7389 18.344 33.1855 18.344C28.7213 18.344 24.6414 19.9373 21.5194 22.5687L11.2654 13.9634C11.6407 13.2103 11.851 12.3656 11.851 11.4733C11.851 8.30472 9.19809 5.73604 5.92552 5.73604C2.65294 5.73604 0 8.30472 0 11.4733C0 14.642 2.65294 17.2107 5.92552 17.2107C7.41921 17.2107 8.78382 16.6755 9.826 15.7925L19.8344 24.1916C17.0797 27.2232 15.409 31.2006 15.409 35.5559C15.409 38.8446 16.3615 41.9178 18.0141 44.531C19.8229 41.731 22.4682 39.4895 25.6112 38.1347C26.2874 37.8432 26.5134 36.9459 26.118 36.3247C25.3389 35.1008 24.8895 33.6593 24.8895 32.1161C24.8895 27.68 28.6036 24.0839 33.1852 24.0839C37.7668 24.0839 41.4809 27.68 41.4809 32.1161C41.4809 33.8152 40.9361 35.391 40.0063 36.6888C39.5773 37.2876 39.7552 38.1961 40.4152 38.5233C43.519 40.0622 46.0758 42.4885 47.7287 45.4563C48.0479 45.0176 48.3465 44.5637 48.623 44.0961L53.6279 46.5481C53.4333 47.2561 53.3296 48 53.3296 48.7673C53.3296 53.5202 57.309 57.3732 62.2179 57.3732C67.1267 57.3732 71.1061 53.5202 71.1061 48.7673C71.1061 44.0143 67.1267 40.1613 62.2179 40.1613C59.0044 40.1613 56.1892 41.8125 54.628 44.2863L49.7225 41.8831C50.5225 39.9245 50.9621 37.7899 50.9621 35.5559C50.9621 30.3738 48.5968 25.7266 44.8545 22.5711L53.2809 12.8214C54.3375 13.4239 55.5691 13.7695 56.8841 13.7695ZM35.2666 36.7478C35.127 37.185 35.0511 37.6552 35.0511 38.1451C35.0511 38.8009 35.1872 39.4217 35.43 39.9751C40.0283 40.8689 43.7758 43.8935 45.5917 47.8831C42.3886 50.9057 38.0116 52.7678 33.1855 52.7678C29.6021 52.7678 26.2664 51.7413 23.4749 49.9753L18.7452 56.9645C20.3329 58.3307 21.3332 60.3229 21.3332 62.5413C21.3332 66.6606 17.8844 69.9998 13.63 69.9998C9.37567 69.9998 5.92685 66.6606 5.92685 62.5413C5.92685 58.4221 9.37567 55.0829 13.63 55.0829C14.728 55.0829 15.7723 55.3053 16.7175 55.7061L21.5483 48.5675C20.9979 48.1056 20.4772 47.6116 19.9892 47.0884C22.0458 43.2628 25.9339 40.4656 30.5961 39.8371L30.6129 39.835L30.6271 39.8335C30.8877 39.2338 31.0336 38.5621 31.0336 37.8529C31.0336 37.4388 30.9839 37.0375 30.8906 36.6558C29.085 35.8299 27.8895 34.0635 27.8895 32.1161C27.8895 29.4274 30.1684 27.0839 33.1852 27.0839C36.2019 27.0839 38.4809 29.4274 38.4809 32.1161C38.4809 34.1392 37.1906 35.9669 35.2666 36.7478Z" fill="#1A93CC"/>
</svg>
