<svg width="18" height="12" viewBox="0 0 18 12" fill="none" xmlns="http://www.w3.org/2000/svg">
<path d="M0 1.65124C0 0.976427 0.462706 0.710594 1.03184 0.674808L3.68173 0.692417C3.84165 0.692417 3.98394 0.799205 4.03744 0.958819C4.64243 2.91167 5.38913 4.11872 6.27869 5.48537C6.33218 5.59216 6.42097 5.64499 6.50975 5.64499C6.5809 5.64499 6.65204 5.6092 6.70554 5.52059L6.75903 5.32519L6.77668 2.25447C6.77668 1.81085 6.56325 1.73985 6.06526 1.66884C5.86948 1.63306 5.74484 1.45584 5.74484 1.27805C5.74484 1.24226 5.74484 1.20704 5.76248 1.17126C6.01176 0.407839 6.79432 0.0176087 7.89673 0.0176087L8.89272 0C9.71113 0 10.4578 0.355013 10.4578 1.40244V5.43198C10.529 5.48537 10.6001 5.52059 10.6889 5.52059C10.8312 5.52059 11.0093 5.43198 11.1516 5.2008C12.0765 3.90514 13.1259 2.36069 13.2682 1.54388C13.2682 1.50809 13.2859 1.49049 13.3041 1.45527C13.4999 1.06447 13.9978 0.798637 14.2113 0.727634C14.2471 0.710026 14.3001 0.691849 14.3712 0.691849H17.1281L17.3062 0.709458C17.5731 0.709458 17.7689 0.887248 17.8577 1.04686C18.0176 1.29565 17.9824 1.56149 18 1.66828V1.79267C17.7331 3.40812 15.8834 5.2184 15.1008 6.39023C14.9938 6.53224 14.9409 6.65663 14.9409 6.78103C14.9409 6.88782 14.9944 6.99404 15.0832 7.10082L17.6801 10.3669C17.8224 10.5623 17.8936 10.793 17.8936 10.9884C17.8936 11.574 17.3421 11.9114 16.8088 11.9648L16.5066 11.9824H13.8032C13.7497 11.9824 13.7144 12 13.6609 12C13.3587 12 13.1094 11.8404 12.9319 11.6626C12.3627 10.9702 11.8112 10.2602 11.2597 9.56774C11.1527 9.42573 11.1175 9.40812 11.0105 9.33712C10.8858 9.85175 10.7794 10.3846 10.6548 10.9168L10.6013 11.2184C10.5125 11.5382 10.2808 11.875 9.85399 11.9642L9.6047 11.9818H7.86145C4.78471 11.9818 2.02782 7.61488 0.089354 2.16586C0.0358554 2.02386 0.000569135 1.82846 0.000569135 1.65124H0ZM10.6889 6.24879C10.2262 6.24879 9.71056 5.98239 9.71056 5.48537V1.40244C9.71056 0.923033 9.49714 0.745811 8.91036 0.745811L7.89673 0.781596C7.3276 0.781596 7.00718 0.870207 6.74082 1.048C7.15003 1.2434 7.52338 1.5098 7.52338 2.25504V5.37915C7.46988 6.00057 6.95425 6.40897 6.45626 6.40897C6.11819 6.40897 5.81598 6.21358 5.63784 5.89435C4.83764 4.68731 4.16151 3.55126 3.57473 1.91821L3.4148 1.4564L1.04948 1.4388C0.729061 1.4388 0.764916 1.4564 0.764916 1.61659C0.764916 1.72337 0.782559 1.86538 0.800771 1.95399L1.17412 2.94803C3.11259 7.95399 5.54962 11.2377 7.86145 11.2377H9.63999C9.88927 11.2377 9.87106 10.9361 9.92456 10.7583L10.2626 9.19625C10.3338 9.03664 10.3873 8.89463 10.5119 8.77024C10.6542 8.62823 10.8141 8.57484 10.9746 8.57484C11.3127 8.57484 11.6325 8.84124 11.846 9.08946L13.3576 11.0065C13.4822 11.2019 13.5886 11.2371 13.6598 11.2371H16.5942C16.8788 11.2371 17.1281 11.1485 17.1281 10.9707C17.1281 10.9174 17.1104 10.8464 17.0746 10.793L14.4958 7.58023C14.2824 7.31383 14.1936 7.04743 14.1936 6.7816C14.1936 6.49759 14.3006 6.21358 14.4782 5.96478C15.2255 4.84635 16.8259 3.24908 17.1992 1.93525L17.2527 1.70463C17.2351 1.61602 17.2351 1.54502 17.2169 1.45584H14.4247C14.2466 1.52684 14.1043 1.63363 13.9978 1.77563L13.8909 2.11304C13.4816 3.24908 12.361 4.81113 11.5608 5.89378C11.2939 6.14257 10.9911 6.24879 10.6889 6.24879Z" fill="white"/>
</svg>
