<svg width="14" height="14" viewBox="0 0 14 14" fill="none" xmlns="http://www.w3.org/2000/svg">
<path fill-rule="evenodd" clip-rule="evenodd" d="M11.9583 2.04167C10.6458 0.729167 8.86667 0 7 0C3.15583 0 0 3.15583 0 7C0 8.23083 0.379167 9.3975 0.991667 10.4533L0 14L3.6925 13.0958C4.71333 13.6558 5.83333 14 7 14C10.8442 14 14 10.8442 14 7C14 5.13917 13.2767 3.36 11.9583 2.04167ZM7 12.8333C5.96167 12.8333 4.97 12.4892 4.0775 11.9642L3.8675 11.8358L1.67417 12.4133L2.2575 10.2725L2.1175 10.0508C1.54 9.12917 1.16667 8.09667 1.16667 7C1.16667 3.80333 3.80333 1.16667 7 1.16667C8.54583 1.16667 10.0333 1.77917 11.13 2.87583C12.2267 3.9725 12.8333 5.45417 12.8333 7C12.8333 10.1967 10.1908 12.8333 7 12.8333ZM10.2083 8.42917C10.0333 8.34167 9.17583 7.92167 9.01833 7.86333C8.86083 7.805 8.74417 7.77583 8.6275 7.95083C8.51083 8.12583 8.17833 8.51667 8.07333 8.63333C7.97417 8.75 7.86917 8.76167 7.69417 8.67417C7.51917 8.58667 6.95917 8.40583 6.29417 7.81083C5.775 7.35 5.425 6.77833 5.32583 6.60333C5.22667 6.42833 5.31417 6.335 5.40167 6.2475C5.4775 6.17167 5.57667 6.04333 5.66417 5.94417C5.75167 5.845 5.78083 5.76917 5.83917 5.6525C5.8975 5.53583 5.86833 5.43667 5.8275 5.34917C5.78083 5.26167 5.43083 4.40417 5.285 4.05417C5.145 3.71583 4.99917 3.7625 4.89417 3.75667C4.795 3.75083 4.67833 3.75083 4.56167 3.75083C4.445 3.75083 4.25833 3.7975 4.095 3.96667C3.9375 4.14167 3.48833 4.5675 3.48833 5.425C3.48833 6.2825 4.1125 7.11083 4.2 7.2275C4.2875 7.34417 5.43083 9.10583 7.175 9.85833C7.58917 10.0392 7.91583 10.1442 8.16667 10.2258C8.58667 10.36 8.96583 10.3425 9.26333 10.2958C9.59583 10.2433 10.2958 9.87583 10.4417 9.4675C10.5875 9.05917 10.5875 8.70917 10.5408 8.63917C10.5 8.56333 10.3833 8.51667 10.2083 8.42917Z" fill="white"/>
</svg>
